<?xml version="1.0" standalone="no"?>
<!DOCTYPE svg PUBLIC "-//W3C//DTD SVG 20010904//EN"
 "http://www.w3.org/TR/2001/REC-SVG-20010904/DTD/svg10.dtd">
<svg version="1.0" xmlns="http://www.w3.org/2000/svg"
 width="667.000000pt" height="667.000000pt" viewBox="0 0 667.000000 667.000000"
 preserveAspectRatio="xMidYMid meet">

<g transform="translate(0.000000,667.000000) scale(0.100000,-0.100000)"
fill="#000000" stroke="none">
<path d="M2874 4873 c-88 -55 -145 -83 -166 -83 -35 0 -74 -28 -132 -95 -32
-36 -85 -84 -117 -106 -65 -44 -89 -81 -108 -171 -9 -40 -26 -76 -55 -115 -60
-80 -81 -125 -101 -218 -10 -45 -33 -107 -52 -143 -30 -54 -36 -76 -43 -160
-7 -71 -17 -118 -40 -176 -34 -86 -37 -148 -10 -212 12 -29 11 -37 -13 -90
-33 -75 -50 -150 -42 -190 3 -18 20 -51 39 -75 52 -69 68 -107 82 -200 7 -48
22 -105 33 -127 23 -44 84 -98 147 -130 l41 -21 0 -83 c0 -129 32 -187 126
-229 45 -20 71 -24 190 -26 l137 -2 43 -35 c95 -78 211 -112 293 -86 60 19
130 70 154 113 18 32 21 51 18 107 -2 47 -9 75 -21 88 -17 18 -16 21 3 63 11
24 20 61 20 82 0 44 -22 101 -43 113 -14 8 -14 16 -1 69 22 89 22 256 0 330
-17 57 -58 110 -111 142 -19 12 -19 13 10 35 106 81 155 156 155 238 0 61 -15
104 -58 164 -32 46 -34 53 -29 109 4 43 16 80 43 131 34 63 38 79 38 141 0 53
-6 81 -23 115 -21 39 -22 49 -13 90 14 59 4 100 -43 187 l-38 69 31 70 c18 38
33 78 34 89 5 66 -2 80 -76 151 -127 123 -198 141 -302 77z m151 -42 c22 -10
62 -38 90 -63 l49 -45 -34 -18 c-89 -45 -140 -129 -140 -232 0 -60 -23 -109
-62 -133 -26 -17 -45 -20 -94 -18 -83 5 -127 38 -149 110 -17 58 -30 71 -58
56 -15 -8 -18 -16 -12 -46 10 -53 28 -83 78 -129 67 -62 143 -78 228 -48 84
30 129 96 129 190 0 22 5 58 11 80 13 46 77 115 107 115 20 0 20 -2 -8 -62
-38 -80 -38 -118 0 -185 55 -98 39 -147 -65 -192 -65 -29 -78 -41 -140 -136
-85 -131 -126 -154 -214 -119 -30 12 -44 13 -60 4 -45 -24 -14 -55 78 -80 93
-25 168 24 257 166 24 40 55 79 69 88 28 18 77 21 106 6 43 -23 64 -121 39
-184 -8 -22 -16 -26 -53 -26 -60 0 -136 -24 -185 -59 -69 -51 -127 -175 -96
-206 21 -20 50 -4 59 32 18 75 82 144 132 143 42 -1 57 -27 64 -111 6 -71 11
-85 37 -113 16 -17 35 -42 42 -55 13 -26 18 -116 7 -127 -3 -4 -22 7 -41 24
-21 18 -52 34 -73 37 -21 3 -62 10 -92 15 -108 20 -127 15 -182 -40 l-50 -50
-52 15 c-90 27 -151 4 -239 -86 -31 -33 -63 -59 -71 -59 -25 0 -74 47 -95 93
-28 59 -48 75 -69 55 -13 -13 -13 -22 -4 -50 28 -84 81 -140 154 -162 13 -4
17 -17 17 -61 0 -31 7 -69 15 -84 22 -43 92 -98 147 -117 55 -18 78 -14 78 16
0 15 -16 27 -62 48 -70 32 -100 61 -116 109 -30 91 88 243 188 243 19 0 55
-12 79 -25 24 -14 51 -23 61 -20 9 3 26 27 39 54 29 66 58 77 148 61 102 -19
117 -24 132 -51 33 -59 -26 -118 -180 -180 -40 -16 -89 -42 -107 -56 -70 -53
-107 -197 -62 -238 28 -26 43 -8 47 56 1 29 11 68 20 88 39 79 184 118 261 71
59 -36 77 -94 76 -240 0 -146 -16 -191 -84 -236 -92 -61 -190 -35 -220 59 -15
48 -36 71 -54 60 -5 -4 -6 3 -2 18 13 41 12 51 -7 63 -14 9 -23 4 -55 -31 -59
-68 -140 -89 -235 -62 -73 20 -149 115 -164 203 -7 44 -27 52 -68 28 -47 -28
-102 -44 -125 -37 -11 4 -46 38 -77 76 l-56 70 6 55 c4 36 20 84 45 136 l40
79 -23 23 c-36 37 -41 87 -15 154 33 84 50 152 50 194 0 51 18 56 76 22 38
-23 61 -28 109 -29 47 0 67 -5 89 -22 15 -13 53 -35 83 -50 54 -26 56 -26 69
-8 20 27 14 37 -41 65 -66 34 -121 91 -136 140 -18 59 7 132 68 200 52 58 99
85 181 104 50 11 57 16 57 37 0 23 -3 24 -55 23 -115 -2 -237 -90 -292 -212
-28 -61 -30 -73 -24 -139 l6 -73 -31 0 c-24 0 -42 11 -76 44 l-44 44 17 39 c9
21 23 63 31 93 36 137 46 161 92 221 46 61 81 139 81 182 0 35 34 77 97 118
37 23 81 64 108 99 74 96 110 102 158 28 22 -34 27 -53 27 -104 0 -35 -5 -75
-10 -90 -14 -35 -4 -64 21 -64 30 0 52 62 53 150 1 64 -3 84 -26 129 -16 29
-28 54 -28 56 0 6 102 76 123 85 31 12 37 12 82 -9z m-682 -1946 c24 -57 89
-130 138 -155 98 -50 212 -46 297 11 24 16 45 29 48 29 2 0 4 -11 4 -25 0 -58
47 -133 102 -161 36 -19 151 -18 217 2 64 19 81 9 81 -45 0 -26 -9 -46 -30
-70 -38 -43 -38 -60 1 -92 27 -22 31 -32 32 -77 1 -59 -21 -90 -85 -123 -108
-55 -218 6 -218 121 0 50 13 76 54 112 26 22 29 30 20 45 -7 11 -28 20 -53 24
-23 3 -47 11 -53 17 -18 18 -46 14 -58 -7 -8 -16 -5 -24 20 -43 l29 -23 -30
-60 c-16 -33 -37 -64 -46 -69 -28 -15 -203 -19 -266 -6 -65 13 -113 48 -133
97 -18 41 -18 137 -1 150 6 6 36 13 66 17 60 8 140 42 148 63 3 8 -1 21 -10
30 -13 14 -22 13 -80 -11 -80 -32 -116 -32 -188 -3 -113 47 -164 111 -171 212
l-3 50 51 6 c28 4 60 11 70 17 27 16 27 16 47 -33z"/>
<path d="M3642 4889 c-23 -12 -74 -51 -113 -88 -90 -84 -100 -117 -63 -206 50
-119 49 -106 6 -187 -48 -88 -56 -125 -38 -175 12 -34 11 -42 -13 -93 -40 -86
-36 -155 13 -255 28 -56 41 -97 44 -138 4 -54 2 -61 -27 -98 -91 -112 -76
-259 36 -360 21 -19 49 -42 63 -52 24 -17 25 -17 5 -30 -54 -33 -94 -85 -111
-142 -22 -73 -22 -240 -1 -327 13 -51 13 -59 -1 -70 -43 -36 -53 -127 -22
-196 20 -44 20 -44 0 -69 -15 -20 -20 -41 -20 -90 0 -70 13 -104 57 -145 85
-79 210 -97 313 -44 30 16 73 43 95 61 l40 33 140 4 c125 3 146 7 197 30 90
42 133 131 126 262 l-3 49 54 28 c106 55 145 114 165 246 14 92 40 157 82 202
31 33 47 91 38 139 -3 20 -20 72 -36 114 -30 77 -30 78 -13 114 24 50 16 140
-20 219 -20 44 -29 85 -35 156 -6 82 -13 105 -43 162 -19 36 -42 101 -52 144
-19 85 -57 165 -109 230 -23 28 -39 63 -49 107 -20 86 -43 124 -98 161 -67 44
-90 65 -133 119 -43 53 -89 86 -122 86 -23 0 -78 27 -168 83 -71 44 -119 48
-184 16z m176 -87 c30 -20 56 -40 58 -44 3 -4 -8 -29 -23 -55 -25 -42 -28 -58
-27 -128 0 -93 22 -155 53 -155 25 0 35 29 21 64 -5 15 -10 55 -10 90 0 51 5
70 28 104 47 74 83 68 156 -27 25 -32 71 -76 103 -96 75 -49 90 -68 104 -135
14 -66 41 -123 82 -169 39 -46 62 -99 81 -190 9 -41 25 -92 36 -113 24 -45 19
-59 -35 -107 -23 -20 -46 -31 -66 -31 l-30 0 7 64 c15 150 -86 294 -245 347
-33 11 -75 19 -93 17 -27 -2 -33 -7 -33 -27 0 -21 7 -26 57 -37 82 -19 129
-46 182 -105 115 -128 90 -251 -68 -338 -56 -30 -62 -39 -43 -65 12 -17 15
-17 51 -2 22 9 60 31 86 50 42 30 54 34 106 33 49 -1 68 4 107 26 58 35 77 26
77 -37 1 -22 9 -63 19 -91 10 -27 26 -72 36 -98 21 -58 14 -110 -20 -141 l-24
-23 40 -80 c26 -52 42 -101 46 -136 5 -54 5 -55 -47 -121 -29 -36 -61 -71 -71
-77 -23 -12 -83 2 -134 33 -29 16 -38 18 -50 8 -8 -7 -15 -20 -15 -29 0 -9
-13 -43 -28 -76 -47 -99 -116 -145 -220 -145 -61 0 -111 24 -154 73 -32 35
-41 40 -55 31 -18 -12 -19 -21 -7 -64 4 -14 3 -22 -1 -18 -15 14 -43 -12 -50
-44 -23 -104 -128 -139 -226 -74 -67 44 -83 90 -83 236 -1 114 1 129 24 175
30 60 73 85 145 85 107 -1 187 -75 187 -174 0 -59 17 -83 46 -67 18 10 22 21
22 60 0 61 -15 106 -51 152 -27 34 -56 51 -189 112 -90 41 -140 82 -140 116 0
52 26 70 129 87 90 15 95 15 119 -3 26 -20 32 -28 54 -78 17 -38 40 -42 79
-14 41 29 107 36 147 15 38 -20 102 -87 119 -124 7 -15 12 -49 13 -76 0 -45
-4 -53 -43 -90 -24 -24 -61 -47 -85 -54 -48 -15 -62 -36 -39 -59 13 -13 21
-13 53 -3 115 36 166 95 174 199 5 60 7 65 32 72 47 12 84 46 116 107 35 66
40 97 16 106 -28 11 -33 7 -63 -53 -31 -60 -71 -101 -99 -101 -9 0 -39 24 -66
54 -71 75 -109 96 -177 96 -31 0 -70 -5 -88 -11 -30 -11 -33 -9 -74 34 -23 25
-55 49 -70 53 -30 7 -193 -12 -237 -28 -14 -5 -37 -21 -52 -35 -15 -15 -31
-24 -34 -20 -11 11 -7 103 6 128 7 13 26 38 42 56 27 28 31 41 35 105 4 55 10
79 26 96 28 30 66 28 104 -7 32 -29 73 -99 73 -125 0 -25 36 -39 54 -21 13 13
13 21 1 61 -38 128 -144 204 -284 204 -45 0 -61 25 -61 96 0 99 64 149 144
112 14 -6 57 -56 96 -112 83 -121 121 -150 194 -150 66 0 164 47 146 69 -19
23 -47 27 -79 11 -78 -41 -132 -11 -216 119 -62 95 -75 107 -140 136 -103 45
-117 85 -65 189 38 74 38 109 0 188 -27 57 -28 62 -10 62 24 0 77 -45 96 -81
8 -16 17 -60 20 -97 8 -95 20 -126 64 -166 100 -90 269 -64 342 54 16 26 29
63 31 85 2 37 0 40 -25 43 -24 3 -28 -1 -38 -40 -24 -88 -76 -128 -167 -128
-92 0 -143 57 -143 158 0 74 -25 135 -75 181 -24 22 -55 43 -69 47 -14 3 -26
10 -26 15 0 16 75 79 125 104 60 31 79 28 153 -23z m584 -1883 c12 -7 44 -14
72 -18 l51 -6 -3 -50 c-7 -104 -63 -171 -181 -216 -67 -25 -125 -21 -194 12
-44 21 -48 22 -63 7 -9 -9 -14 -23 -11 -31 8 -22 89 -57 148 -64 30 -3 60 -10
67 -16 16 -13 16 -109 -2 -150 -33 -80 -126 -113 -289 -105 -52 3 -101 9 -110
14 -9 5 -30 36 -46 69 l-30 60 29 23 c25 19 28 27 20 43 -12 21 -40 25 -56 9
-6 -6 -30 -14 -54 -18 -58 -10 -74 -36 -40 -64 79 -65 81 -176 4 -237 -70 -55
-226 1 -247 89 -8 33 3 100 16 100 18 0 47 32 47 51 0 10 -13 33 -29 51 -36
42 -44 82 -22 110 16 19 19 20 64 4 54 -18 172 -21 214 -5 58 22 112 99 113
162 0 33 3 33 44 2 43 -33 145 -58 199 -50 109 18 206 94 243 190 19 50 17 49
46 34z"/>
</g>
</svg>
